<svg xmlns="http://www.w3.org/2000/svg" xmlns:xlink="http://www.w3.org/1999/xlink" viewBox="0 0 362.02 540.3"><defs><style>.cls-1{fill-rule:evenodd;fill:url(#linear-gradient);}.cls-2{fill:url(#linear-gradient-2);}</style><linearGradient id="linear-gradient" x1="377.5" y1="762.7" x2="558.09" y2="420.75" gradientUnits="userSpaceOnUse"><stop offset="0" stop-color="#029a63"/><stop offset="0.14" stop-color="#159d7c"/><stop offset="0.55" stop-color="#4ca6c2"/><stop offset="0.85" stop-color="#6fabee"/><stop offset="1" stop-color="#7cadff"/></linearGradient><linearGradient id="linear-gradient-2" x1="235.66" y1="881.15" x2="597.69" y2="881.15" xlink:href="#linear-gradient"/></defs><title>Jobsage</title><g id="Layer_1" data-name="Layer 1"><path class="cls-1" d="M362.83,659.12a39.14,39.14,0,0,1-5.52-10.76L343,653.11A54.17,54.17,0,0,0,350.6,668Zm-7.5-23.1a39.39,39.39,0,0,1,39.37-39.37V581.53A54.51,54.51,0,0,0,340.21,636ZM550.4,794a19.74,19.74,0,0,1-27.91,0L455.2,726.68A109,109,0,1,1,424.67,531.2v42.08a69.53,69.53,0,1,0,17.94,113.11l.05,0L443,686a69.31,69.31,0,0,0,21.22-50V422.12H399.7a19.74,19.74,0,1,1,0-39.48H484a19.74,19.74,0,0,1,19.74,19.74V636a108.45,108.45,0,0,1-20.17,63.16l66.87,66.87A19.74,19.74,0,0,1,550.4,794Z" transform="translate(-235.66 -382.64)"/></g><g id="Layer_3" data-name="Layer 3"><path class="cls-2" d="M248.1,840.26H257v61q0,8.55-1.75,12.64a14.11,14.11,0,0,1-5.64,6.55,17.23,17.23,0,0,1-9.38,2.46,25.51,25.51,0,0,1-2.88-.27l-1.64-8.23h2.26a14.32,14.32,0,0,0,5.82-.93,6.81,6.81,0,0,0,3.19-3.27q1.17-2.36,1.17-10Z" transform="translate(-235.66 -382.64)"/><path class="cls-2" d="M301,839.37q14.33,0,23.86,9.07a30.13,30.13,0,0,1,9.53,22.76,29.65,29.65,0,0,1-9.62,22.64q-9.62,9-24.26,9-14,0-23.29-9t-9.31-22.47q0-13.85,9.38-22.93T301,839.37Zm.35,8.41q-10.62,0-17.45,6.64t-6.83,17A22.23,22.23,0,0,0,284,888a25.45,25.45,0,0,0,34.42-.14A22.59,22.59,0,0,0,325.29,871a22.08,22.08,0,0,0-6.92-16.53A23.49,23.49,0,0,0,301.37,847.78Z" transform="translate(-235.66 -382.64)"/><path class="cls-2" d="M366.24,902.09H345.3V840.26h16.2q7.65,0,11.95,2a14.81,14.81,0,0,1,8.81,14q0,9.12-9.43,13.06A19.16,19.16,0,0,1,383.61,875a14.52,14.52,0,0,1,4,10.27,15.1,15.1,0,0,1-2.44,8.45,17.69,17.69,0,0,1-7.15,6.07A26.4,26.4,0,0,1,366.24,902.09Zm-4.47-54h-7.62v18.59H360q7.08,0,10.07-2.71a9,9,0,0,0,3-7Q373.1,848.14,361.77,848.14Zm.66,26.46h-8.28v19.61h8.72c4.84,0,8.12-.37,9.85-1.13a9.3,9.3,0,0,0,4.16-3.52,9.13,9.13,0,0,0,1.57-5.13,8.76,8.76,0,0,0-1.66-5.18,9.74,9.74,0,0,0-4.71-3.49C370,875,366.83,874.6,362.43,874.6Z" transform="translate(-235.66 -382.64)"/><path class="cls-2" d="M411.65,876.18l-6.73-4.08q-6.33-3.87-9-7.61a14.43,14.43,0,0,1-2.67-8.61A15.23,15.23,0,0,1,398.3,844q5.07-4.56,13.17-4.56a24.91,24.91,0,0,1,14.21,4.35v10.05q-6.68-6.43-14.38-6.43a12,12,0,0,0-7.13,2,6.09,6.09,0,0,0-2.79,5.14,7.94,7.94,0,0,0,2.05,5.2,25.71,25.71,0,0,0,6.61,5.09l6.76,4q11.31,6.75,11.32,17.2a15.76,15.76,0,0,1-5,12.08q-5,4.65-12.95,4.65a27.24,27.24,0,0,1-16.69-5.63V885.92q7.17,9.09,16.6,9.09a10.42,10.42,0,0,0,6.93-2.32,7.25,7.25,0,0,0,2.76-5.8Q419.79,881.25,411.65,876.18Z" transform="translate(-235.66 -382.64)"/><path class="cls-2" d="M457.6,839.9h6.22l27.72,62.19h-9.06l-8.24-18.32H447.86l-7.73,18.32H431Zm13,36-10-22.4-9.26,22.4Z" transform="translate(-235.66 -382.64)"/><path class="cls-2" d="M528.1,871.64h20.76v26.2a56.44,56.44,0,0,1-22.66,5q-15.36,0-24.54-9a29.67,29.67,0,0,1-9.19-22.11q0-13.86,9.52-23.06t23.86-9.21a42.38,42.38,0,0,1,9.91,1.13,80.44,80.44,0,0,1,11.86,4.14v9q-11.05-6.42-22-6.42a23.33,23.33,0,0,0-17.09,6.9,23,23,0,0,0-6.94,17q0,10.53,6.94,17.21t17.89,6.69a41.51,41.51,0,0,0,12.7-2.44l.84-.26V879.52H528.1Z" transform="translate(-235.66 -382.64)"/><path class="cls-2" d="M561.79,840.26h35.05v7.88h-26.2V867H596v7.92H570.64v19.21h27.05V902h-35.9Z" transform="translate(-235.66 -382.64)"/></g></svg>