<svg id="Layer_3" data-name="Layer 3" xmlns="http://www.w3.org/2000/svg" xmlns:xlink="http://www.w3.org/1999/xlink" viewBox="0 0 1648.18 1190.55"><defs><style>.cls-1{fill-rule:evenodd;fill:url(#linear-gradient);}.cls-2{fill:url(#linear-gradient-2);}</style><linearGradient id="linear-gradient" x1="262.02" y1="1084.82" x2="777.48" y2="108.79" gradientUnits="userSpaceOnUse"><stop offset="0" stop-color="#029a63"/><stop offset="0.14" stop-color="#159d7c"/><stop offset="0.55" stop-color="#4ca6c2"/><stop offset="0.85" stop-color="#6fabee"/><stop offset="1" stop-color="#7cadff"/></linearGradient><linearGradient id="linear-gradient-2" x1="689.15" y1="836.43" x2="1640.55" y2="836.43" xlink:href="#linear-gradient"/></defs><title>Jobsage 2</title><path class="cls-1" d="M220.14,789.18a111.52,111.52,0,0,1-15.75-30.7l-41,13.55a155,155,0,0,0,21.83,42.52Zm-21.39-65.94A112.4,112.4,0,0,1,311.1,610.87V567.7c-85.83,0-155.53,69.69-155.53,155.54Zm556.79,450.83a56.33,56.33,0,0,1-79.66,0L483.81,982a309.51,309.51,0,0,1-172.69,52.35C139.41,1034.35,0,895,0,723.23S139.41,412.11,311.12,412.11A310.87,310.87,0,0,1,396.67,424V544.15a197.29,197.29,0,0,0-85.55-19.35c-109.52,0-198.46,88.91-198.46,198.43S201.6,921.66,311.12,921.66A197.92,197.92,0,0,0,447.87,867a.34.34,0,0,1,.15-.14c.31-.31.65-.63,1-1a197.87,197.87,0,0,0,60.56-142.66V112.69H325.39A56.35,56.35,0,0,1,325.39,0H565.9a56.35,56.35,0,0,1,56.34,56.34V723.23a309.58,309.58,0,0,1-57.57,180.28l190.87,190.87A56.34,56.34,0,0,1,755.54,1174.07Z"/><path class="cls-2" d="M784.61,744.93q41.34,0,68.85,26.18T881,836.75q0,39.46-27.75,65.33t-70,25.85q-40.34,0-67.19-25.85t-26.87-64.82q0-40,27.06-66.15T784.61,744.93Zm1,24.27q-30.61,0-50.33,19.15t-19.71,48.91q0,28.88,19.77,48t49.51,19.16q29.85,0,49.82-19.54t20-48.66q0-28.35-20-47.69T785.63,769.2Z"/><path class="cls-2" d="M972.78,925.89h-60.4V747.49h46.74q22.1,0,34.48,5.94t18.9,16.34a44.47,44.47,0,0,1,6.51,24.08q0,26.29-27.2,37.67,19.55,3.71,31.1,16.09a41.93,41.93,0,0,1,11.55,29.63,43.54,43.54,0,0,1-7,24.39q-7,10.73-20.63,17.49T972.78,925.89Zm-12.9-155.67h-22v53.64h17q20.43,0,29.06-7.79t8.62-20.18Q992.58,770.22,959.88,770.22Zm1.92,76.37H937.92v56.57h25.16q20.94,0,28.41-3.26a27,27,0,0,0,12-10.15,26.41,26.41,0,0,0,4.54-14.81,25.3,25.3,0,0,0-4.79-14.94,28.31,28.31,0,0,0-13.6-10.09Q980.82,846.58,961.8,846.59Z"/><path class="cls-2" d="M1103.81,851.14l-19.41-11.79q-18.27-11.16-26-21.94a41.61,41.61,0,0,1-7.73-24.84q0-21.08,14.62-34.23t38-13.15a71.86,71.86,0,0,1,41,12.55v29q-19.29-18.56-41.51-18.55-12.51,0-20.55,5.79t-8,14.81q0,8,5.93,15t19.06,14.7l19.5,11.54q32.64,19.5,32.64,49.63,0,21.47-14.36,34.87t-37.36,13.4a78.41,78.41,0,0,1-48.14-16.25V879.25q20.68,26.21,47.89,26.21,12,0,20-6.68a21,21,0,0,0,8-16.74Q1127.3,865.77,1103.81,851.14Z"/><path class="cls-2" d="M1236.37,746.47h18l80,179.42h-26.14L1284.39,873h-76.11L1186,925.89h-26.25Zm37.52,103.82-28.78-64.62-26.69,64.62Z"/><path class="cls-2" d="M1439.8,838h59.89v75.6q-32.94,14.31-65.38,14.3-44.32,0-70.82-25.85T1337,838.29q0-40,27.45-66.54t68.83-26.56a122,122,0,0,1,28.61,3.26q13.53,3.25,34.22,11.94v26.05q-31.92-18.53-63.34-18.52-29.24,0-49.29,19.92t-20,48.91q0,30.4,20,49.68t51.59,19.28q15.33,0,36.65-7l2.43-.77V860.76H1439.8Z"/><path class="cls-2" d="M1537,747.49h101.14v22.73h-75.6v54.4h73v22.86h-73v55.43h78v22.73H1537Z"/></svg>